<svg width="30" height="30" viewBox="0 0 30 30" fill="none" xmlns="http://www.w3.org/2000/svg">
<g clip-path="url(#clip0_46_607)">
<path d="M17.9165 9.6151C17.5881 9.6151 17.2686 9.65412 16.9625 9.72778C16.1278 9.0791 15.0947 8.71956 14.0294 8.71108C12.7289 8.7011 11.5033 9.19953 10.58 10.1156C9.65538 11.0328 9.14622 12.2557 9.14622 13.559C9.14622 13.8812 9.06648 14.2021 8.91563 14.4869L8.0954 16.0353C7.96223 16.2858 7.96882 16.5814 8.11303 16.8263C8.2573 17.0712 8.51283 17.2204 8.79657 17.2254L9.1449 17.2255V18.4651C9.1449 19.2063 9.7474 19.8093 10.4879 19.8093H11.3608V20.1718C11.3608 20.7879 11.8616 21.289 12.477 21.289H16.3133C16.9288 21.289 17.4296 20.7879 17.4296 20.1718V19.3691C17.4296 18.8358 17.4842 18.3025 17.5922 17.7791C17.6992 17.7875 17.8073 17.7919 17.9165 17.7919C20.1682 17.7919 22 15.9578 22 13.7035C22 11.4492 20.1681 9.6151 17.9165 9.6151V9.6151ZM16.6093 19.3691V20.1719C16.6093 20.3355 16.4765 20.4687 16.3133 20.4687H12.477C12.3139 20.4687 12.1811 20.3355 12.1811 20.1719V19.709C12.1811 19.312 11.8583 18.989 11.4615 18.989H10.4879C10.1997 18.989 9.96519 18.754 9.96519 18.4651V17.1251C9.96519 16.7281 9.64242 16.4051 9.24564 16.4051H8.82774L9.64045 14.8708C9.85376 14.4681 9.9665 14.0145 9.9665 13.5589C9.9665 12.476 10.3895 11.46 11.1577 10.6979C11.9246 9.93701 12.9416 9.52349 14.0228 9.53131C14.7308 9.53695 15.4214 9.72901 16.024 10.0812C14.7226 10.7655 13.8329 12.1324 13.8329 13.7035C13.8329 15.5649 15.0819 17.1398 16.785 17.6322C16.6683 18.2041 16.6093 18.7865 16.6093 19.3691V19.3691ZM17.9165 16.9716C16.1171 16.9716 14.6533 15.5055 14.6533 13.7035C14.6533 11.9015 16.1171 10.4354 17.9165 10.4354C19.7158 10.4354 21.1797 11.9015 21.1797 13.7035C21.1797 15.5055 19.7158 16.9716 17.9165 16.9716Z" fill="white"/>
<path d="M17.9943 11.1365C17.5685 11.1152 17.1517 11.2751 16.8508 11.576C16.6907 11.7362 16.6907 11.9958 16.8508 12.156C17.011 12.3162 17.2707 12.3162 17.4309 12.156C17.57 12.0169 17.7556 11.9455 17.9528 11.9558C18.2927 11.973 18.5776 12.2521 18.6014 12.5912C18.6228 12.896 18.4464 13.174 18.1626 13.283C17.77 13.4339 17.5063 13.8228 17.5063 14.2509C17.5063 14.4774 17.6899 14.661 17.9164 14.661C18.143 14.661 18.3266 14.4774 18.3266 14.2509C18.3266 14.1599 18.379 14.0787 18.4569 14.0487C19.0796 13.8095 19.4665 13.2007 19.4197 12.5339C19.3666 11.7757 18.7538 11.175 17.9943 11.1365V11.1365Z" fill="white"/>
<path d="M17.9165 15.0258C17.69 15.0258 17.5063 15.2094 17.5063 15.4359V15.8624C17.5063 16.089 17.69 16.2726 17.9165 16.2726C18.143 16.2726 18.3267 16.089 18.3267 15.8624V15.4359C18.3266 15.2094 18.143 15.0258 17.9165 15.0258Z" fill="white"/>
</g>
<circle cx="15" cy="15" r="15" fill="white" fill-opacity="0.2"/>
<defs>
<clipPath id="clip0_46_607">
<rect width="14" height="14" fill="white" transform="translate(8 8)"/>
</clipPath>
</defs>
</svg>
