<svg width="96" height="97" viewBox="0 0 96 97" fill="none" xmlns="http://www.w3.org/2000/svg">
<circle cx="48.1928" cy="48.5161" r="47.7377" fill="white" fill-opacity="0.2"/>
<g clip-path="url(#clip0_55_424)">
<path d="M73.9852 39.5613C66.783 36.6734 58.8273 33.9747 50.3389 31.5403C49.1356 31.1951 47.8641 31.1952 46.6612 31.5403C41.238 33.0956 36.0059 34.7662 31.1102 36.5056C30.691 36.6546 30.4718 37.1152 30.6207 37.5345C30.7696 37.9537 31.2302 38.1729 31.6496 38.0239C36.5139 36.2956 41.714 34.6352 47.1054 33.0891C48.0176 32.8274 48.982 32.8273 49.8946 33.0891C58.3305 35.5085 66.2341 38.1892 73.3855 41.0569C74.1249 41.3534 74.3885 42.0171 74.3887 42.5394C74.3888 43.0621 74.1253 43.7266 73.3855 44.0236C69.7924 45.4643 66.0073 46.8583 62.0586 48.1962C61.984 48.1029 61.8891 48.0249 61.7771 47.9715L48.8465 41.8126C48.4449 41.6212 47.9641 41.7918 47.7726 42.1935C47.5813 42.5953 47.7519 43.076 48.1536 43.2673L59.9663 48.8938C56.7086 49.9658 53.3476 51.0001 49.8946 51.9904C48.9824 52.252 48.018 52.2522 47.1054 51.9904C38.6632 49.5692 30.7597 46.8888 23.6149 44.0238C22.8747 43.7267 22.6112 43.0622 22.6113 42.5395C22.6115 42.0172 22.8751 41.3534 23.6146 41.0569C25.2412 40.4046 26.929 39.7533 28.6311 39.1211C29.0482 38.9662 29.2607 38.5025 29.1058 38.0853C28.9509 37.6682 28.4869 37.4556 28.0701 37.6105C26.3549 38.2475 24.654 38.9039 23.0147 39.5612C21.7723 40.0596 21.0003 41.2006 21 42.5392C20.9997 43.8783 21.7716 45.0201 23.0148 45.5193C25.9494 46.696 29.0123 47.841 32.1846 48.9504V57.8482C32.1846 58.8178 32.7609 59.688 33.6526 60.0651C37.9297 61.8756 42.7402 63.5435 47.9545 65.0237C48.1684 65.0831 48.3884 65.1133 48.6085 65.1133C48.8286 65.1133 49.0486 65.0831 49.2668 65.0225C53.3156 63.8733 57.1217 62.6094 60.6249 61.2536V63.7783C59.359 64.1314 58.4272 65.294 58.4272 66.671V70.913C58.4272 71.3579 58.7878 71.7187 59.2329 71.7187H63.6282C64.0732 71.7187 64.4339 71.3579 64.4339 70.913V66.671C64.4339 65.294 63.5021 64.1314 62.2362 63.7783V60.6148C62.6836 60.433 63.1271 60.2502 63.5634 60.0654C64.4564 59.6886 65.0335 58.8182 65.0335 57.8482V56.572C65.0335 56.127 64.6729 55.7663 64.2278 55.7663C63.7828 55.7663 63.4221 56.127 63.4221 56.572V57.8482C63.4221 58.1688 63.2318 58.4564 62.9362 58.5811C62.7047 58.6791 62.4709 58.7765 62.2362 58.8736V49.8363C62.6333 49.7025 63.0283 49.5679 63.4221 49.4329V53.3493C63.4221 53.7942 63.7828 54.155 64.2278 54.155C64.6729 54.155 65.0335 53.7942 65.0335 53.3493V48.8741C68.1283 47.7884 71.1182 46.669 73.9856 45.5192C75.2284 45.0201 76.0003 43.8783 76 42.5392C75.9997 41.2006 75.2277 40.0596 73.9852 39.5613ZM62.8225 66.6708V70.1072H60.0385V66.6708C60.0385 65.9033 60.6629 65.2789 61.4305 65.2789C62.1982 65.2789 62.8225 65.9033 62.8225 66.6708ZM60.6249 59.5242C57.0098 60.948 53.0539 62.2724 48.8311 63.4711C48.6842 63.512 48.5285 63.5108 48.3902 63.4723C43.244 62.0115 38.4969 60.3659 34.2805 58.581C33.9862 58.4565 33.7959 58.1689 33.7959 57.8482V49.5076C37.916 50.9161 42.2138 52.2639 46.6611 53.5394C47.2628 53.712 47.8812 53.7982 48.5 53.7982C49.1186 53.7982 49.7374 53.712 50.3388 53.5394C53.8662 52.5277 57.299 51.4703 60.6249 50.3736V59.5242Z" fill="white"/>
</g>
<defs>
<clipPath id="clip0_55_424">
<rect width="55" height="55" fill="white" transform="translate(21 24)"/>
</clipPath>
</defs>
</svg>
