<svg width="30" height="30" viewBox="0 0 30 30" fill="none" xmlns="http://www.w3.org/2000/svg">
<circle cx="15" cy="15" r="15" fill="white" fill-opacity="0.2"/>
<path d="M18.1088 8.40477H15.8488C15.5927 7.82448 15.0181 7.44995 14.3837 7.44995C13.7493 7.44995 13.1747 7.82448 12.9186 8.40477H10.6585C9.80594 8.40576 9.11512 9.09669 9.11414 9.94923V19.968C9.11512 20.8206 9.80594 21.5115 10.6585 21.5125H18.1088C18.9613 21.5115 19.6522 20.8206 19.6532 19.968V9.94923C19.6522 9.09669 18.9613 8.40576 18.1088 8.40477ZM13.1729 9.1079C13.3379 9.1079 13.4808 8.99309 13.5162 8.8317C13.6026 8.43861 13.9675 8.15308 14.3837 8.15308C14.8 8.15308 15.1647 8.43861 15.2511 8.8317C15.2865 8.99309 15.4293 9.1079 15.5945 9.1079H16.2916V9.4164C16.2911 9.88079 15.9148 10.2571 15.4504 10.2576H13.317C12.8525 10.2571 12.4762 9.88079 12.4756 9.4164V9.1079H13.1729ZM18.9501 19.968C18.9496 20.4325 18.5733 20.8089 18.1088 20.8093H10.6585C10.1941 20.8089 9.81781 20.4325 9.81726 19.968V9.94923C9.81781 9.48473 10.1941 9.10845 10.6585 9.1079H11.7725V9.4164C11.7735 10.2689 12.4644 10.9598 13.317 10.9607H15.4504C16.3029 10.9598 16.9938 10.2689 16.9947 9.4164V9.1079H18.1088C18.5733 9.10845 18.9495 9.48473 18.9501 9.94923V19.968Z" fill="white"/>
<path d="M16.1235 13.9457L13.8155 16.1993L12.6434 15.0553C12.5056 14.9203 12.2847 14.922 12.1486 15.0587C12.0126 15.1954 12.0121 15.4163 12.1475 15.5536L12.1522 15.5582L13.5697 16.9423C13.7064 17.0756 13.9244 17.0756 14.061 16.9423L16.6146 14.449C16.7527 14.3132 16.7549 14.0914 16.6197 13.9529C16.4844 13.8143 16.2627 13.8113 16.1235 13.946V13.9457Z" fill="white"/>
</svg>
