<svg width="106" height="106" viewBox="0 0 106 106" fill="none" xmlns="http://www.w3.org/2000/svg">
<circle cx="53" cy="53" r="53" fill="#FF0000"/>
<path d="M74.5769 49.2466C74.3407 49.2466 74.1044 49.1457 73.9318 48.9806C73.7682 48.8064 73.6683 48.5679 73.6683 48.3295C73.6683 48.091 73.7682 47.8526 73.9318 47.6783C74.2771 47.339 74.8859 47.339 75.2221 47.6783C75.3856 47.8526 75.4856 48.091 75.4856 48.3295C75.4856 48.5771 75.3856 48.8064 75.2221 48.9806C75.0494 49.1457 74.8132 49.2466 74.5769 49.2466Z" fill="white"/>
<path d="M43.6827 65.7548C43.4465 65.7548 43.2102 65.6539 43.0376 65.4888C42.874 65.3146 42.774 65.0761 42.774 64.8377C42.774 64.5992 42.874 64.3608 43.0376 64.1865C43.3828 63.8472 43.9826 63.8472 44.3278 64.1865C44.4914 64.3608 44.5914 64.5992 44.5914 64.8377C44.5914 65.0761 44.4914 65.3146 44.3278 65.4888C44.1552 65.6539 43.919 65.7548 43.6827 65.7548Z" fill="white"/>
<path d="M74.5769 56.5835C74.0754 56.5835 73.6683 56.1727 73.6683 55.6664V51.9979C73.6683 51.4917 74.0754 51.0808 74.5769 51.0808C75.0785 51.0808 75.4856 51.4917 75.4856 51.9979V55.6664C75.4856 56.1727 75.0785 56.5835 74.5769 56.5835Z" fill="white"/>
<path d="M74.5769 45.5781C74.0754 45.5781 73.6683 45.1673 73.6683 44.661V34.1141C73.6683 33.6079 74.0754 33.197 74.5769 33.197C75.0785 33.197 75.4856 33.6079 75.4856 34.1141V44.661C75.4856 45.1673 75.0785 45.5781 74.5769 45.5781Z" fill="white"/>
<path d="M43.6827 62.0863C43.1811 62.0863 42.774 61.6755 42.774 61.1692V50.3398C42.774 49.8336 43.1811 49.4227 43.6827 49.4227C44.1843 49.4227 44.5914 49.8336 44.5914 50.3398V61.1692C44.5914 61.6755 44.1843 62.0863 43.6827 62.0863Z" fill="white"/>
<path d="M43.6827 73.0917C43.1811 73.0917 42.774 72.6808 42.774 72.1746V68.5061C42.774 67.9999 43.1811 67.589 43.6827 67.589C44.1843 67.589 44.5914 67.9999 44.5914 68.5061V72.1746C44.5914 72.6808 44.1843 73.0917 43.6827 73.0917Z" fill="white"/>
<path d="M55.6124 72.6405C55.1108 72.6405 54.7037 72.2297 54.7037 71.7234V57.5007C54.7037 56.9945 55.1108 56.5836 55.6124 56.5836C56.114 56.5836 56.521 56.9945 56.521 57.5007V71.7234C56.521 72.2297 56.1149 72.6405 55.6124 72.6405V72.6405Z" fill="white"/>
<path d="M72.7596 58.4177C72.258 58.4177 71.851 58.0069 71.851 57.5006C71.851 56.9944 72.258 56.5835 72.7596 56.5835C73.2603 56.5835 73.6683 56.1717 73.6683 55.6664C73.6683 55.1601 74.0753 54.7493 74.5769 54.7493C75.0785 54.7493 75.4856 55.1601 75.4856 55.6664C75.4856 57.1833 74.2625 58.4177 72.7596 58.4177Z" fill="white"/>
<path d="M72.7596 58.4179H43.6827C43.1811 58.4179 42.774 58.007 42.774 57.5007C42.774 56.9945 43.1811 56.5836 43.6827 56.5836H72.7596C73.2612 56.5836 73.6683 56.9945 73.6683 57.5007C73.6683 58.007 73.2612 58.4179 72.7596 58.4179Z" fill="white"/>
<path d="M69.125 42.3682H55.826C55.3244 42.3682 54.9173 41.9573 54.9173 41.4511C54.9173 40.9448 55.3244 40.5339 55.826 40.5339H69.125C69.6266 40.5339 70.0337 40.9448 70.0337 41.4511C70.0337 41.9573 69.6266 42.3682 69.125 42.3682Z" fill="white"/>
<path d="M69.125 46.0366H56.8446C56.343 46.0366 55.9359 45.6258 55.9359 45.1195C55.9359 44.6133 56.343 44.2024 56.8446 44.2024H69.125C69.6266 44.2024 70.0337 44.6133 70.0337 45.1195C70.0337 45.6258 69.6266 46.0366 69.125 46.0366Z" fill="white"/>
<path d="M69.125 49.7052H55.0363C54.5348 49.7052 54.1277 49.2943 54.1277 48.7881C54.1277 48.2818 54.5348 47.871 55.0363 47.871H69.125C69.6266 47.871 70.0337 48.2818 70.0337 48.7881C70.0337 49.2943 69.6266 49.7052 69.125 49.7052Z" fill="white"/>
<path d="M65.4904 38.6997H48.226C47.7244 38.6997 47.3173 38.2888 47.3173 37.7826C47.3173 37.2763 47.7244 36.8655 48.226 36.8655H65.4904C65.992 36.8655 66.3991 37.2763 66.3991 37.7826C66.3991 38.2888 65.992 38.6997 65.4904 38.6997Z" fill="white"/>
<path d="M56.8582 33.197C56.3566 33.197 55.9495 32.7862 55.9495 32.2799V30.4457C55.9495 29.9394 56.3566 29.5286 56.8582 29.5286C57.3598 29.5286 57.7668 29.9394 57.7668 30.4457V32.2799C57.7668 32.7862 57.3598 33.197 56.8582 33.197Z" fill="white"/>
<path d="M39.1394 38.6961C38.6379 38.6961 38.2308 38.2852 38.2308 37.779V34.1141C38.2308 33.6079 38.6379 33.197 39.1394 33.197C39.641 33.197 40.0481 33.6079 40.0481 34.1141V37.779C40.0481 38.2852 39.641 38.6961 39.1394 38.6961Z" fill="white"/>
<path d="M39.1394 35.0313C38.6379 35.0313 38.2308 34.6204 38.2308 34.1142C38.2308 32.5972 39.4538 31.3628 40.9567 31.3628C41.4583 31.3628 41.8654 31.7737 41.8654 32.2799C41.8654 32.7862 41.4583 33.197 40.9567 33.197C40.4561 33.197 40.0481 33.6088 40.0481 34.1142C40.0481 34.6204 39.641 35.0313 39.1394 35.0313Z" fill="white"/>
<path d="M72.7596 33.197H40.9567C40.4552 33.197 40.0481 32.7862 40.0481 32.2799C40.0481 31.7737 40.4552 31.3628 40.9567 31.3628H72.7596C73.2612 31.3628 73.6683 31.7737 73.6683 32.2799C73.6683 32.7862 73.2612 33.197 72.7596 33.197Z" fill="white"/>
<path d="M74.5769 35.0313C74.0753 35.0313 73.6683 34.6204 73.6683 34.1142C73.6683 33.6088 73.2603 33.197 72.7596 33.197C72.258 33.197 71.851 32.7862 71.851 32.2799C71.851 31.7737 72.258 31.3628 72.7596 31.3628C74.2625 31.3628 75.4856 32.5972 75.4856 34.1142C75.4856 34.6204 75.0785 35.0313 74.5769 35.0313Z" fill="white"/>
<path d="M33.5421 48.4231C33.1578 48.4231 32.7998 48.1745 32.6771 47.7839C32.5244 47.3014 32.7889 46.7851 33.2668 46.632C36.1972 45.6882 39.3421 45.5021 42.3624 46.0945C42.8549 46.1908 43.1766 46.6723 43.0821 47.1694C42.9867 47.6665 42.5115 47.9875 42.0171 47.8957C39.2939 47.3611 36.4598 47.5298 33.8193 48.38C33.7266 48.4084 33.6339 48.4231 33.5421 48.4231V48.4231Z" fill="white"/>
<path d="M42.1898 47.9113C41.8481 47.9113 41.5201 47.716 41.3656 47.3812C41.1539 46.9227 41.3502 46.377 41.8054 46.1624L50.2577 42.1848C50.7102 41.9702 51.2536 42.1683 51.4653 42.6287C51.677 43.0873 51.4807 43.6329 51.0255 43.8476L42.5732 47.8251C42.4496 47.8847 42.3188 47.9113 42.1898 47.9113V47.9113Z" fill="white"/>
<path d="M52.1786 47.2583C51.837 47.2583 51.5089 47.0629 51.3545 46.7291C51.1427 46.2705 51.339 45.7239 51.7933 45.5102C52.5257 45.1654 52.2431 44.4556 52.1786 44.3171C52.115 44.1786 51.7615 43.5054 51.0246 43.8484C50.5712 44.063 50.0287 43.8649 49.817 43.4045C49.6053 42.946 49.8016 42.4003 50.2568 42.1857C51.8415 41.4382 53.2526 42.3022 53.8251 43.5421C54.3975 44.7811 54.1468 46.4264 52.5612 47.173C52.4385 47.2308 52.3076 47.2583 52.1786 47.2583Z" fill="white"/>
<path d="M43.6827 51.2569C43.341 51.2569 43.013 51.0616 42.8585 50.7278C42.6468 50.2683 42.8431 49.7226 43.2974 49.5089L51.7933 45.5103C52.2477 45.2948 52.7892 45.4947 53.0009 45.9532C53.2127 46.4127 53.0164 46.9584 52.5621 47.1721L44.0661 51.1707C43.9426 51.2294 43.8117 51.2569 43.6827 51.2569V51.2569Z" fill="white"/>
<path d="M47.1074 75.3845C46.8539 75.3845 46.6013 75.2781 46.4223 75.0699C46.0924 74.6875 46.1324 74.1088 46.5104 73.7759L55.0163 66.2976C55.3952 65.9647 55.9686 66.0051 56.2984 66.3866C56.6283 66.769 56.5883 67.3477 56.2103 67.6807L47.7044 75.1589C47.5317 75.3102 47.3191 75.3845 47.1074 75.3845V75.3845Z" fill="white"/>
<path d="M64.1183 75.3845C63.9066 75.3845 63.694 75.3102 63.5222 75.1589L55.0163 67.6807C54.6374 67.3477 54.5984 66.769 54.9282 66.3866C55.2571 66.0051 55.8314 65.9647 56.2103 66.2976L64.7162 73.7759C65.0951 74.1088 65.1342 74.6875 64.8044 75.0699C64.6244 75.2781 64.3727 75.3845 64.1183 75.3845V75.3845Z" fill="white"/>
<path d="M30.9615 61.3947C30.4599 61.3947 30.0529 60.9839 30.0529 60.4776V51.0166C30.0529 50.5104 30.4599 50.0995 30.9615 50.0995C31.4631 50.0995 31.8702 50.5104 31.8702 51.0166V60.4776C31.8702 60.9839 31.4631 61.3947 30.9615 61.3947Z" fill="white"/>
<path d="M30.9615 51.9338C30.4599 51.9338 30.0529 51.5229 30.0529 51.0166C30.0529 48.9815 31.3495 47.2179 33.2795 46.6273C33.7593 46.4796 34.2672 46.7548 34.4126 47.239C34.558 47.7242 34.2863 48.2359 33.8065 48.3827C32.648 48.7376 31.8702 49.7959 31.8702 51.0166C31.8702 51.5229 31.4631 51.9338 30.9615 51.9338Z" fill="white"/>
<path d="M34.5962 73.0917C34.0946 73.0917 33.6875 72.6808 33.6875 72.1746V52.0117C33.6875 51.5055 34.0946 51.0946 34.5962 51.0946C35.0977 51.0946 35.5048 51.5055 35.5048 52.0117V72.1746C35.5048 72.6808 35.0977 73.0917 34.5962 73.0917Z" fill="white"/>
<path d="M39.1394 47.5858C36.2599 47.5858 33.8265 45.1297 33.8265 42.2234C33.8265 39.317 36.2599 36.861 39.1394 36.861C42.019 36.861 44.4523 39.3161 44.4523 42.2234C44.4523 45.1306 42.019 47.5858 39.1394 47.5858ZM39.1394 38.6961C37.2449 38.6961 35.6438 40.3121 35.6438 42.2243C35.6438 44.1365 37.2449 45.7524 39.1394 45.7524C41.034 45.7524 42.635 44.1365 42.635 42.2243C42.635 40.3112 41.034 38.6961 39.1394 38.6961Z" fill="white"/>
<path d="M39.1394 73.0917C38.6379 73.0917 38.2308 72.6809 38.2308 72.1746V60.4777C38.2308 59.9714 38.6379 59.5605 39.1394 59.5605C39.641 59.5605 40.0481 59.9714 40.0481 60.4777V72.1746C40.0481 72.6809 39.641 73.0917 39.1394 73.0917Z" fill="white"/>
<path d="M32.7788 63.1694C31.424 63.1694 30.0529 62.245 30.0529 60.4777C30.0529 59.9714 30.4599 59.5605 30.9615 59.5605C31.4631 59.5605 31.8702 59.9714 31.8702 60.4777C31.8702 61.2939 32.6271 61.3352 32.7788 61.3352C32.9306 61.3352 33.6875 61.2939 33.6875 60.4777C33.6875 59.9714 34.0945 59.5605 34.5961 59.5605C35.0977 59.5605 35.5048 59.9714 35.5048 60.4777C35.5048 62.245 34.1336 63.1694 32.7788 63.1694Z" fill="white"/>
<path d="M41.4111 75.3093C40.5987 75.3093 39.8336 75.0341 39.2566 74.5334C38.5951 73.9593 38.2308 73.121 38.2308 72.1746C38.2308 71.6683 38.6379 71.2574 39.1394 71.2574C39.641 71.2574 40.0481 71.6683 40.0481 72.1746C40.0481 73.4384 41.272 73.475 41.4111 73.475C41.5501 73.475 42.774 73.4384 42.774 72.1746C42.774 71.6683 43.1811 71.2574 43.6827 71.2574C44.1843 71.2574 44.5914 71.6683 44.5914 72.1746C44.5914 74.2326 42.9912 75.3093 41.4111 75.3093Z" fill="white"/>
<path d="M36.8678 75.3093C36.0555 75.3093 35.2904 75.0341 34.7134 74.5334C34.0519 73.9593 33.6875 73.121 33.6875 72.1746C33.6875 71.6683 34.0946 71.2574 34.5962 71.2574C35.0977 71.2574 35.5048 71.6683 35.5048 72.1746C35.5048 73.4384 36.7288 73.475 36.8678 73.475C37.0068 73.475 38.2308 73.4384 38.2308 72.1746C38.2308 71.6683 38.6378 71.2574 39.1394 71.2574C39.641 71.2574 40.0481 71.6683 40.0481 72.1746C40.0481 74.2326 38.4479 75.3093 36.8678 75.3093Z" fill="white"/>
</svg>
