<svg width="106" height="106" viewBox="0 0 106 106" fill="none" xmlns="http://www.w3.org/2000/svg">
<circle cx="53" cy="53" r="53" fill="#FF0000"/>
<g clip-path="url(#clip0_31_89)">
<path d="M70.8545 38.8291C70.6131 36.0083 68.7849 34.1802 65.9644 33.9389C65.5726 33.9054 65.228 34.1958 65.1945 34.5874C65.161 34.9789 65.4514 35.3237 65.843 35.3572C67.9775 35.5399 69.2535 36.8161 69.4362 38.9504C69.4511 39.1243 69.5273 39.2783 69.6418 39.3927C69.7852 39.536 69.9884 39.6175 70.206 39.5989C70.5976 39.5653 70.888 39.2207 70.8545 38.8291Z" fill="white"/>
<path d="M74.5246 30.2691C73.8536 29.5981 72.9265 29.2632 71.9818 29.3495L70.8774 29.4507C66.6198 29.8411 62.7335 31.8357 59.9344 35.0675L58.2347 37.0298L54.3142 35.405L54.5239 35.1953C55.1483 34.5708 55.1483 33.5548 54.5239 32.9305L53.3359 31.742C52.7115 31.1179 51.6955 31.1177 51.0711 31.742L49.4318 33.3812L47.5471 32.6001L48.0195 32.1277C48.6438 31.5033 48.6438 30.4874 48.0195 29.863L46.8312 28.6747C46.2067 28.0504 45.1907 28.0506 44.5664 28.6747L42.6646 30.5766L39.46 29.2484C37.9409 28.6188 36.2082 28.9634 35.0454 30.126L32.9123 32.259C32.4596 32.7118 32.2263 33.3379 32.2725 33.9766C32.3186 34.6153 32.6395 35.2013 33.1526 35.5844L49.1461 47.5225L43.8077 53.6858C43.5503 53.9829 43.5826 54.4324 43.8796 54.6897C44.0143 54.8063 44.1801 54.8635 44.3453 54.8635C44.5446 54.8635 44.7428 54.7803 44.8836 54.6178L50.7229 47.8761C50.723 47.876 50.723 47.876 50.7231 47.876L54.1719 43.8942L61.0103 35.9993C63.5675 33.0469 67.1178 31.2248 71.0074 30.8682L72.1118 30.767C72.6353 30.7191 73.1471 30.9044 73.5181 31.2756C73.8893 31.6466 74.0746 32.1592 74.0267 32.6819L73.9255 33.7863C73.691 36.3453 72.7975 38.8173 71.3416 40.9348C71.1189 41.2588 71.2011 41.7019 71.5249 41.9246C71.849 42.1474 72.292 42.0651 72.5147 41.7413C74.1082 39.4233 75.0862 36.7174 75.343 33.9163L75.4442 32.8119C75.5308 31.8669 75.1956 30.94 74.5246 30.2691ZM52.0776 32.7487C52.1467 32.6793 52.2597 32.6792 52.3292 32.7487L53.5173 33.9369C53.5867 34.0062 53.5867 34.1192 53.5174 34.1885L52.8909 34.8149L52.313 34.5753L50.8551 33.9711L52.0776 32.7487ZM45.573 29.6814C45.6422 29.6119 45.7552 29.6118 45.8246 29.6814L47.0128 30.8695C47.0821 30.9388 47.0821 31.0517 47.0128 31.121L46.1238 32.0101L44.0879 31.1664L45.573 29.6814ZM50.0806 46.4437L34.004 34.4436C33.8195 34.306 33.7089 34.1037 33.6922 33.8741C33.6757 33.6445 33.7561 33.4284 33.9189 33.2657L36.0519 31.1328C36.5558 30.629 37.2244 30.3621 37.9067 30.3621C38.2456 30.3621 38.588 30.428 38.9151 30.5635L57.2526 38.1634L50.0806 46.4437Z" fill="white"/>
<path d="M76.5317 58.3753L75.3436 57.187C74.719 56.5626 73.703 56.5628 73.0787 57.187L72.4905 57.7753L71.5884 55.5986L73.0516 54.1354C73.6759 53.5109 73.6759 52.495 73.0516 51.8707L71.8634 50.6823C71.2389 50.058 70.2229 50.0581 69.5986 50.6824L69.5649 50.7161L67.8214 46.5092L69.7265 44.8591C69.867 44.7373 70.0073 44.6116 70.1432 44.4856C70.4316 44.2183 70.4486 43.768 70.1813 43.4798C69.9143 43.1916 69.4639 43.1745 69.1756 43.4417C69.0512 43.5569 68.923 43.6718 68.7945 43.7832L47.9992 61.7952C46.9123 62.7366 45.7803 63.6225 44.6087 64.4514C42.9909 65.596 41.2813 66.6394 39.5273 67.5529C39.527 67.5531 39.5266 67.5534 39.5262 67.5535C39.073 67.7896 38.6159 68.0181 38.1544 68.2383C37.5903 68.5075 37.0795 68.2937 36.7897 68.0039C36.4999 67.714 36.2861 67.2033 36.5552 66.6391C36.7897 66.1475 37.0346 65.6609 37.2871 65.1787C37.3818 64.9979 37.4774 64.8174 37.5748 64.6376C37.5967 64.5971 37.6192 64.557 37.6412 64.5165C37.7375 64.3401 37.8345 64.1642 37.9334 63.9889C37.9541 63.9522 37.9752 63.9158 37.996 63.8791C38.0975 63.7003 38.2 63.5219 38.3042 63.3442C38.3235 63.3113 38.3431 63.2786 38.3624 63.2457C38.4686 63.0656 38.5759 62.8863 38.6847 62.7077C38.7044 62.6754 38.7244 62.6431 38.7442 62.6108C38.8525 62.4338 38.9621 62.2576 39.0729 62.0822C39.0955 62.0464 39.1183 62.0109 39.141 61.9752C39.249 61.8053 39.3582 61.6362 39.4685 61.4679C39.4958 61.4263 39.5231 61.3849 39.5505 61.3435C39.6567 61.1825 39.7641 61.0224 39.8723 60.863C39.9044 60.8159 39.9367 60.7687 39.9689 60.7216C40.0745 60.5676 40.181 60.4144 40.2883 60.2619C41.0513 59.1784 41.8624 58.1283 42.7214 57.117C42.9758 56.8174 42.9393 56.3682 42.6397 56.1138C42.3399 55.8595 41.891 55.896 41.6364 56.1955C40.8985 57.0644 40.195 57.9612 39.5253 58.8821L33.0934 55.9705C31.8799 55.4211 30.4324 55.6848 29.4909 56.6265L28.396 57.7216C28.1189 57.9986 27.9759 58.3818 28.0033 58.7728C28.0309 59.1637 28.2263 59.5229 28.5395 59.7583L35.7034 65.1466C35.5563 65.4384 35.4112 65.7312 35.2705 66.0261C34.7855 67.0427 34.9868 68.2141 35.7831 69.0104C36.2911 69.5185 36.9517 69.7843 37.6273 69.7843C38.0108 69.7843 38.3993 69.6985 38.7674 69.5229C39.0624 69.3821 39.3552 69.2371 39.6469 69.0901L45.0351 76.254C45.2707 76.5672 45.6298 76.7626 46.0207 76.7901C46.0526 76.7923 46.0842 76.7935 46.1159 76.7935C46.4733 76.7935 46.8172 76.6519 47.0718 76.3974L48.1666 75.3025C49.1083 74.361 49.3719 72.9132 48.8228 71.7001L45.9116 65.269C46.9506 64.5134 47.9582 63.7137 48.931 62.8711L57.2914 55.6297L69.3419 71.7738C69.725 72.287 70.3111 72.6078 70.9498 72.6539C71.003 72.6577 71.0561 72.6596 71.1091 72.6596C71.6915 72.6596 72.2524 72.429 72.6674 72.0139L74.8003 69.881C75.9631 68.7184 76.3076 66.9856 75.678 65.4666L74.514 62.6579L76.5318 60.64C77.1561 60.0156 77.1561 58.9997 76.5317 58.3753ZM29.4606 58.6701L30.4976 57.6332C31.0226 57.1082 31.8299 56.9612 32.5064 57.2675L38.6915 60.0674C38.6782 60.0869 38.6651 60.1068 38.6519 60.1263C38.5747 60.2404 38.498 60.3549 38.4218 60.4696C38.3846 60.5255 38.3478 60.5817 38.3109 60.6378C38.0516 61.0322 37.7984 61.4307 37.5514 61.833C37.5205 61.8832 37.4895 61.9333 37.4589 61.9836C37.3859 62.1036 37.3135 62.224 37.2417 62.3447C37.2044 62.4071 37.1676 62.4697 37.1307 62.5323C37.0614 62.65 36.9921 62.7677 36.9237 62.886C36.8889 62.9463 36.8548 63.007 36.8203 63.0674C36.7073 63.2652 36.5958 63.4639 36.4857 63.6634C36.448 63.7318 36.4096 63.8001 36.3723 63.8686L29.4606 58.6701ZM47.5261 72.2872C47.8323 72.9636 47.6854 73.7709 47.1601 74.296L46.1234 75.3329L40.9249 68.4212C41.0369 68.3602 41.1483 68.2981 41.2598 68.2361C41.419 68.1477 41.5776 68.0582 41.7357 67.9678C41.8103 67.9252 41.885 67.8826 41.9594 67.8395C42.0785 67.7706 42.1971 67.7011 42.3155 67.6312C42.3747 67.5961 42.4337 67.5607 42.4929 67.5254C42.9008 67.2818 43.3047 67.0318 43.7048 66.7755C43.757 66.742 43.8094 66.7085 43.8615 66.6748C43.9851 66.5949 44.1085 66.5146 44.2312 66.4334C44.2805 66.4009 44.3295 66.3679 44.3787 66.3352C44.4948 66.2578 44.6113 66.1812 44.7266 66.1028L47.5261 72.2872ZM70.605 51.689C70.6742 51.6196 70.7872 51.6196 70.8566 51.6889L72.0448 52.8773C72.1142 52.9466 72.1142 53.0595 72.0448 53.1288L70.9984 54.1753L70.3571 52.6281L70.1546 52.1393L70.605 51.689ZM73.7937 68.8744L71.6607 71.0074C71.4981 71.1701 71.2822 71.2497 71.0523 71.2342C70.8226 71.2176 70.6204 71.1068 70.4827 70.9224L58.3703 54.6953L60.9089 52.4964L66.6873 47.4914L74.363 66.0114C74.7714 66.9966 74.5479 68.1204 73.7937 68.8744ZM75.5251 59.6334L73.9241 61.2345L73.0803 59.1985L74.0854 58.1935C74.1545 58.124 74.2676 58.124 74.337 58.1934L75.5251 59.3817V59.3817C75.5945 59.4511 75.5945 59.5641 75.5251 59.6334Z" fill="white"/>
</g>
<defs>
<clipPath id="clip0_31_89">
<rect width="49" height="49" fill="white" transform="translate(28 28)"/>
</clipPath>
</defs>
</svg>
