<svg width="30" height="30" viewBox="0 0 30 30" fill="none" xmlns="http://www.w3.org/2000/svg">
<circle cx="15" cy="15" r="15" fill="white" fill-opacity="0.2"/>
<g clip-path="url(#clip0_55_422)">
<path d="M16.8132 20.8407C16.706 20.8674 16.5967 20.8911 16.4882 20.9111C16.2046 20.9638 16.0171 21.2366 16.0696 21.5204C16.0955 21.6601 16.1748 21.7764 16.2825 21.8523C16.3934 21.9304 16.5347 21.9657 16.6786 21.9389C16.8078 21.9149 16.938 21.8867 17.0657 21.8548C17.3458 21.7851 17.5164 21.5014 17.4465 21.2216C17.3768 20.9414 17.0934 20.7709 16.8132 20.8407Z" fill="white"/>
<path d="M20.6779 13.8358C20.7145 13.9461 20.7844 14.0362 20.8727 14.0984C21.0036 14.1906 21.1749 14.2216 21.3383 14.1676C21.6123 14.0766 21.7608 13.7811 21.6701 13.5072C21.6288 13.3824 21.583 13.2571 21.5342 13.1352C21.427 12.8672 21.123 12.7367 20.8549 12.8439C20.587 12.951 20.4565 13.2551 20.5638 13.5232C20.6048 13.6257 20.6432 13.7309 20.6779 13.8358Z" fill="white"/>
<path d="M18.5113 20.0945C18.4191 20.1554 18.324 20.2143 18.2281 20.2695C17.978 20.4137 17.8924 20.7334 18.0366 20.9833C18.0757 21.0513 18.1279 21.1069 18.1879 21.1494C18.3491 21.2628 18.5681 21.2798 18.7504 21.1748C18.8643 21.1091 18.9776 21.0391 19.0874 20.9665C19.3282 20.8075 19.3944 20.4833 19.2353 20.2424C19.0762 20.0015 18.7521 19.9353 18.5113 20.0945Z" fill="white"/>
<path d="M21.995 15.2953C21.9836 15.0069 21.7407 14.7824 21.4521 14.7936C21.164 14.805 20.9393 15.048 20.9506 15.3364C20.9549 15.4466 20.9561 15.5585 20.9535 15.6686C20.9495 15.8495 21.0379 16.0108 21.1754 16.1077C21.2573 16.1654 21.3567 16.2003 21.4645 16.2027C21.753 16.2091 21.992 15.9803 21.9984 15.6917C22.0013 15.5601 22.0002 15.4268 21.995 15.2953Z" fill="white"/>
<path d="M20.5926 18.7197C20.3613 18.5462 20.034 18.5933 19.8608 18.8242C19.7944 18.9126 19.7246 18.9999 19.653 19.084C19.4661 19.3037 19.4925 19.6336 19.7122 19.8207C19.7247 19.8313 19.7373 19.841 19.7505 19.8502C19.9688 20.0041 20.2723 19.9688 20.4489 19.7616C20.5343 19.6613 20.6176 19.5569 20.6968 19.4513C20.8701 19.2205 20.8232 18.893 20.5926 18.7197Z" fill="white"/>
<path d="M21.3607 16.8305C21.0853 16.7441 20.7921 16.8974 20.7058 17.1728C20.6727 17.278 20.6361 17.3838 20.5966 17.4873C20.5098 17.7152 20.593 17.966 20.7836 18.1004C20.8185 18.1249 20.857 18.1458 20.8989 18.1616C21.1685 18.2645 21.4704 18.1292 21.5732 17.8594C21.6201 17.7363 21.6637 17.6106 21.7031 17.4855C21.7893 17.21 21.6361 16.9168 21.3607 16.8305Z" fill="white"/>
<path d="M14.5331 20.9158C14.0658 20.8319 13.6176 20.689 13.1926 20.4898C13.1876 20.4871 13.1831 20.4841 13.1778 20.4817C13.0776 20.4346 12.9776 20.3841 12.8807 20.3313C12.8804 20.3309 12.8798 20.3307 12.8793 20.3305C12.7014 20.2326 12.5279 20.1242 12.3593 20.0055C9.90094 18.2738 9.30984 14.8648 11.0417 12.4065C11.4183 11.8721 11.874 11.4263 12.3821 11.073C12.3883 11.0686 12.3946 11.0643 12.4008 11.0599C14.1912 9.82629 16.6222 9.74315 18.5232 11.0108L18.1149 11.6007C18.0014 11.7649 18.0713 11.8846 18.27 11.8667L20.0436 11.7079C20.2425 11.6901 20.3615 11.5179 20.308 11.3258L19.8317 9.6098C19.7784 9.41743 19.6419 9.3944 19.5283 9.55858L19.119 10.1499C17.7239 9.2134 16.0506 8.85629 14.3897 9.14429C14.2225 9.17324 14.0575 9.20868 13.8949 9.24993C13.8936 9.25015 13.8926 9.25029 13.8916 9.25051C13.8853 9.25205 13.8789 9.25409 13.8728 9.25579C12.4406 9.62358 11.1911 10.4589 10.2994 11.6507C10.2919 11.6596 10.2842 11.6683 10.2771 11.678C10.2474 11.7179 10.218 11.7588 10.1892 11.7997C10.1421 11.8666 10.0956 11.9352 10.0512 12.0039C10.0456 12.0121 10.0414 12.0206 10.0365 12.0289C9.30073 13.1691 8.94583 14.4873 9.0067 15.8292C9.00684 15.8336 9.00658 15.8381 9.0067 15.8426C9.01259 15.9737 9.02299 16.1066 9.0371 16.2375C9.03785 16.2459 9.03973 16.2539 9.04115 16.2623C9.05574 16.3939 9.07404 16.5258 9.09699 16.6576C9.33016 18.0028 9.96473 19.2133 10.9156 20.1552C10.9178 20.1574 10.9201 20.1598 10.9224 20.1621C10.9231 20.163 10.924 20.1634 10.9248 20.1642C11.1802 20.4162 11.4581 20.6493 11.7573 20.86C12.5403 21.4117 13.4122 21.7765 14.3486 21.9445C14.6327 21.9955 14.9041 21.8064 14.9551 21.5224C15.0061 21.2383 14.8171 20.9666 14.5331 20.9158Z" fill="white"/>
<path d="M15.1792 11.325C14.9455 11.325 14.7562 11.5144 14.7562 11.7478V15.9604L18.609 17.9521C18.671 17.9842 18.7374 17.9993 18.8027 17.9993C18.9558 17.9993 19.1036 17.916 19.1787 17.7706C19.2859 17.5631 19.2048 17.3081 18.9973 17.2009L15.6018 15.4455V11.7478C15.6017 11.5144 15.4127 11.325 15.1792 11.325Z" fill="white"/>
</g>
<defs>
<clipPath id="clip0_55_422">
<rect width="13" height="13" fill="white" transform="translate(9 9)"/>
</clipPath>
</defs>
</svg>
