<svg width="16" height="17" viewBox="0 0 16 17" fill="none" xmlns="http://www.w3.org/2000/svg">
<path d="M13.6532 2.92177C12.1424 1.41097 10.1345 0.578217 7.99835 0.578217C5.86217 0.578217 3.85435 1.41097 2.34355 2.92177C0.83275 4.43257 0 6.44039 0 8.57657C0 10.7128 0.83275 12.7206 2.34355 14.2314C3.85435 15.7422 5.86217 16.5749 7.99835 16.5749C9.23925 16.5749 10.3715 16.3445 11.2701 15.9133C12.1226 15.5019 12.7414 14.9127 13.0146 14.2577C13.3405 13.471 13.1561 12.6515 12.511 12.0063L12.488 11.9833C12.4978 11.9701 12.511 11.9602 12.5209 11.9504C12.9817 11.4665 12.9817 10.8313 12.5143 10.3639L11.3754 9.225C11.1516 8.99459 10.8817 8.86952 10.5954 8.86952C10.309 8.86952 10.0358 8.9913 9.80539 9.22171L9.21292 9.81418C9.1833 9.79772 9.15696 9.78456 9.12734 9.77139C9.05493 9.73518 8.9891 9.70227 8.93314 9.66606C8.3308 9.28425 7.78441 8.78394 7.26106 8.14209C7.03065 7.85244 6.87266 7.60558 6.75417 7.36201C6.90228 7.22376 7.04053 7.08223 7.17548 6.94399C7.23143 6.88474 7.29068 6.82878 7.34993 6.76954C7.83378 6.28569 7.83378 5.6603 7.34993 5.17645L6.78708 4.6136C6.72125 4.54777 6.65871 4.48523 6.59617 4.4194C6.4711 4.29103 6.34273 4.15937 6.20448 4.031C5.98066 3.81047 5.71405 3.69527 5.43098 3.69527C5.14791 3.69527 4.87801 3.81047 4.6476 4.031C4.64431 4.0343 4.64431 4.0343 4.64102 4.03759L3.93335 4.74526C3.65028 5.02833 3.4857 5.37723 3.45279 5.77879C3.40341 6.40418 3.58445 6.98348 3.72598 7.36201C4.06501 8.27705 4.5719 9.12626 5.32565 10.0347C6.24069 11.1275 7.34334 11.9932 8.60399 12.6021C9.08784 12.8325 9.73627 13.1024 10.467 13.1518C10.5131 13.1551 10.5591 13.1551 10.6052 13.1551C11.1154 13.1551 11.5466 12.9707 11.8823 12.6054C11.8856 12.6021 11.8922 12.5955 11.8955 12.5922C11.9054 12.579 11.9185 12.5659 11.9317 12.5527L11.9515 12.5725C12.3728 12.9938 12.488 13.4743 12.2839 13.9648C11.9054 14.8633 10.4341 15.785 7.99835 15.785C4.02222 15.785 0.789961 12.5527 0.789961 8.57657C0.789961 4.60044 4.02222 1.36818 7.99835 1.36818C11.9745 1.36818 15.2067 4.60044 15.2067 8.57657C15.2067 9.23158 15.1179 9.87672 14.9467 10.4988C14.8875 10.7095 15.0125 10.9267 15.2232 10.986C15.4339 11.0452 15.6511 10.9201 15.7103 10.7095C15.9013 10.0183 16 9.3007 16 8.57657C15.9967 6.44039 15.164 4.43257 13.6532 2.92177ZM11.2964 12.0689C11.1088 12.2696 10.8982 12.3585 10.6052 12.3585C10.5756 12.3585 10.546 12.3585 10.5164 12.3552C9.92388 12.3157 9.36433 12.082 8.94631 11.8812C7.79099 11.3217 6.77721 10.5284 5.93458 9.52124C5.24007 8.68519 4.77597 7.91169 4.46657 7.08223C4.28225 6.58192 4.21312 6.20011 4.23946 5.83804C4.25921 5.62409 4.3382 5.44964 4.4929 5.29823L5.20058 4.59385C5.25653 4.54119 5.34211 4.47865 5.43427 4.47865C5.52643 4.47865 5.60543 4.5379 5.6548 4.59056C5.65809 4.59385 5.66139 4.59714 5.66468 4.60044C5.78976 4.71564 5.90825 4.83742 6.03333 4.96579C6.09916 5.03162 6.16499 5.10074 6.23082 5.16657L6.79366 5.72942C6.96811 5.90387 6.96811 6.03224 6.79366 6.20669C6.73442 6.26594 6.67517 6.32518 6.61592 6.38443C6.44147 6.55888 6.28019 6.72675 6.10245 6.88474C6.09586 6.88803 6.09257 6.89461 6.08599 6.9012C5.83913 7.14806 5.92471 7.4048 5.95104 7.49038C5.95433 7.50025 5.95762 7.50683 5.96091 7.51671C6.11232 7.88207 6.32298 8.22438 6.64555 8.63253L6.64884 8.63582C7.22814 9.35008 7.83707 9.90305 8.51183 10.3309C8.6007 10.3869 8.68957 10.433 8.77515 10.4758C8.84756 10.512 8.91339 10.5449 8.96935 10.5811C8.97922 10.5877 8.99239 10.5943 9.00555 10.6008C9.09113 10.6436 9.17671 10.6634 9.26229 10.6634C9.40712 10.6634 9.54207 10.6041 9.65727 10.4856L10.3649 9.77797C10.4209 9.72202 10.5032 9.65619 10.5954 9.65619C10.6809 9.65619 10.7599 9.71873 10.8093 9.77139C10.8126 9.77468 10.8126 9.77468 10.8159 9.77797L11.9547 10.9168C12.116 11.0781 12.116 11.2262 11.9482 11.4007L11.9449 11.404C11.8692 11.4863 11.7869 11.5653 11.698 11.6508C11.5663 11.7792 11.4281 11.9142 11.2964 12.0689Z" fill="#282828" stroke="black" stroke-width="0.1"/>
</svg>
