<svg width="16" height="17" viewBox="0 0 16 17" fill="none" xmlns="http://www.w3.org/2000/svg">
<g clip-path="url(#clip0_437_419)">
<path d="M13.6532 2.9218C12.1424 1.411 10.1345 0.578247 7.99835 0.578247C5.86217 0.578247 3.85435 1.411 2.34355 2.9218C0.83275 4.4326 0 6.44042 0 8.5766C0 10.7128 0.83275 12.7206 2.34355 14.2314C3.85435 15.7422 5.86217 16.575 7.99835 16.575C9.23925 16.575 10.3715 16.3446 11.2701 15.9134C12.1226 15.5019 12.7414 14.9128 13.0146 14.2577C13.3405 13.4711 13.1561 12.6515 12.511 12.0064L12.488 11.9833C12.4978 11.9701 12.511 11.9603 12.5209 11.9504C12.9817 11.4665 12.9817 10.8313 12.5143 10.3639L11.3754 9.22503C11.1516 8.99463 10.8817 8.86955 10.5954 8.86955C10.309 8.86955 10.0358 8.99133 9.80539 9.22174L9.21292 9.81421C9.1833 9.79775 9.15696 9.78459 9.12734 9.77142C9.05493 9.73521 8.9891 9.7023 8.93314 9.66609C8.3308 9.28428 7.78441 8.78397 7.26106 8.14213C7.03065 7.85247 6.87266 7.60561 6.75417 7.36204C6.90228 7.22379 7.04053 7.08226 7.17548 6.94402C7.23143 6.88477 7.29068 6.82881 7.34993 6.76957C7.83378 6.28572 7.83378 5.66033 7.34993 5.17648L6.78708 4.61363C6.72125 4.5478 6.65871 4.48526 6.59617 4.41943C6.4711 4.29106 6.34273 4.1594 6.20448 4.03104C5.98066 3.8105 5.71405 3.6953 5.43098 3.6953C5.14791 3.6953 4.87801 3.8105 4.6476 4.03104C4.64431 4.03433 4.64431 4.03433 4.64102 4.03762L3.93335 4.74529C3.65028 5.02836 3.4857 5.37726 3.45279 5.77882C3.40341 6.40421 3.58445 6.98352 3.72598 7.36204C4.06501 8.27708 4.5719 9.12629 5.32565 10.0347C6.24069 11.1275 7.34334 11.9932 8.60399 12.6021C9.08784 12.8325 9.73627 13.1024 10.467 13.1518C10.5131 13.1551 10.5591 13.1551 10.6052 13.1551C11.1154 13.1551 11.5466 12.9708 11.8823 12.6054C11.8856 12.6021 11.8922 12.5955 11.8955 12.5922C11.9054 12.5791 11.9185 12.5659 11.9317 12.5527L11.9515 12.5725C12.3728 12.9938 12.488 13.4744 12.2839 13.9648C11.9054 14.8634 10.4341 15.785 7.99835 15.785C4.02222 15.785 0.789961 12.5527 0.789961 8.5766C0.789961 4.60047 4.02222 1.36821 7.99835 1.36821C11.9745 1.36821 15.2067 4.60047 15.2067 8.5766C15.2067 9.23161 15.1179 9.87675 14.9467 10.4988C14.8875 10.7095 15.0125 10.9267 15.2232 10.986C15.4339 11.0452 15.6511 10.9202 15.7103 10.7095C15.9013 10.0183 16 9.30073 16 8.5766C15.9967 6.44042 15.164 4.4326 13.6532 2.9218ZM11.2964 12.0689C11.1088 12.2697 10.8982 12.3585 10.6052 12.3585C10.5756 12.3585 10.546 12.3585 10.5164 12.3553C9.92388 12.3158 9.36433 12.0821 8.94631 11.8813C7.79099 11.3217 6.77721 10.5285 5.93458 9.52127C5.24007 8.68522 4.77597 7.91172 4.46657 7.08226C4.28225 6.58195 4.21312 6.20014 4.23946 5.83807C4.25921 5.62412 4.3382 5.44967 4.4929 5.29826L5.20058 4.59388C5.25653 4.54122 5.34211 4.47868 5.43427 4.47868C5.52643 4.47868 5.60543 4.53793 5.6548 4.59059C5.65809 4.59388 5.66139 4.59717 5.66468 4.60047C5.78976 4.71567 5.90825 4.83745 6.03333 4.96582C6.09916 5.03165 6.16499 5.10077 6.23082 5.1666L6.79366 5.72945C6.96811 5.9039 6.96811 6.03227 6.79366 6.20672C6.73442 6.26597 6.67517 6.32521 6.61592 6.38446C6.44147 6.55891 6.28019 6.72678 6.10245 6.88477C6.09586 6.88806 6.09257 6.89464 6.08599 6.90123C5.83913 7.14809 5.92471 7.40483 5.95104 7.49041C5.95433 7.50028 5.95762 7.50687 5.96091 7.51674C6.11232 7.8821 6.32298 8.22441 6.64555 8.63256L6.64884 8.63585C7.22814 9.35011 7.83707 9.90308 8.51183 10.331C8.6007 10.3869 8.68957 10.433 8.77515 10.4758C8.84756 10.512 8.91339 10.5449 8.96935 10.5811C8.97922 10.5877 8.99239 10.5943 9.00555 10.6009C9.09113 10.6437 9.17671 10.6634 9.26229 10.6634C9.40712 10.6634 9.54207 10.6042 9.65727 10.4857L10.3649 9.778C10.4209 9.72205 10.5032 9.65622 10.5954 9.65622C10.6809 9.65622 10.7599 9.71876 10.8093 9.77142C10.8126 9.77471 10.8126 9.77471 10.8159 9.778L11.9547 10.9169C12.116 11.0781 12.116 11.2263 11.9482 11.4007L11.9449 11.404C11.8692 11.4863 11.7869 11.5653 11.698 11.6509C11.5663 11.7792 11.4281 11.9142 11.2964 12.0689Z" fill="white"/>
</g>
<defs>
<clipPath id="clip0_437_419">
<rect width="16" height="16" fill="white" transform="translate(0 0.575317)"/>
</clipPath>
</defs>
</svg>
