<svg width="160" height="44" viewBox="0 0 160 44" fill="none" xmlns="http://www.w3.org/2000/svg">
<path d="M6.65454 21.011C6.65454 21.011 12.4773 15.7265 13.8082 10.6022C15.5552 11.0825 19.0487 11.7231 25.454 12.444L25.5371 21.4917C25.5371 21.4917 12.3109 21.4114 6.65454 21.011Z" fill="white"/>
<path d="M64.9654 21.011C64.9654 21.011 59.1426 15.7265 57.8118 10.6022C56.0649 11.0825 52.571 11.7231 46.1662 12.444L46.083 21.4917C46.083 21.4917 59.3091 21.4114 64.9654 21.011Z" fill="white"/>
<path d="M27.4015 12.6841C27.4015 12.6841 36.5028 13.1644 44.322 12.6841L44.1556 21.4115H27.6995L27.4015 12.6841Z" fill="white"/>
<path d="M0 29.5089C0 29.5089 5.82271 26.3139 7.15369 23.2158C8.90047 23.506 15.6762 23.4803 22.2477 23.4319C21.5822 28.9988 19.3668 29.7993 19.3668 29.7993C19.3668 29.7993 5.65639 29.7513 0 29.5089Z" fill="white"/>
<path d="M23.8282 23.4803C23.8282 23.4803 23.9113 28.3734 21.499 29.7509L35.2241 29.7734V23.4803H23.8282Z" fill="white"/>
<path d="M72.0739 29.5089C72.0739 29.5089 66.2512 26.3139 64.9202 23.2158C63.1734 23.506 56.3976 23.4803 49.8262 23.4319C50.4916 28.9988 52.707 29.7993 52.707 29.7993C52.707 29.7993 66.4175 29.7513 72.0739 29.5089Z" fill="white"/>
<path d="M48.2457 23.4803C48.2457 23.4803 48.1626 28.3734 50.5749 29.7509L36.8497 29.7734V23.4803H48.2457Z" fill="white"/>
<path d="M18.2051 33.7383H11.9097V43.1507H18.2051V33.7383Z" fill="white"/>
<path d="M60.1642 33.7383H53.8688V43.1507H60.1642V33.7383Z" fill="white"/>
<path d="M51.3137 9.81799C49.7547 4.08277 43.7347 0 36.5409 0C29.4797 0 23.5459 4.118 21.855 9.69353C25.4893 10.2496 36.3216 12.1443 51.3137 9.81799Z" fill="#FF0000"/>
<path d="M78.0903 20.8919C78.2144 18.5883 78.6486 16.1824 79.393 13.674C79.0031 13.2819 78.6132 12.9065 78.2233 12.5478C77.8333 12.1892 77.4523 11.8479 77.0801 11.524C77.5054 11.7629 77.9264 12.0146 78.3429 12.2791C78.7594 12.5436 79.1715 12.8209 79.5791 13.1109C79.8095 12.3431 80.0754 11.5752 80.3767 10.8074C80.2881 11.2851 80.2127 11.7373 80.1507 12.1639C80.0887 12.5905 80.0311 13 79.9779 13.3925C81.6212 14.5608 83.1842 15.8304 84.6569 17.1934C86.1628 18.5842 87.5831 20.0584 88.9106 21.6085C88.9283 20.2264 88.8796 18.7888 88.7644 17.2957C88.6593 15.8714 88.4506 14.4559 88.1396 13.0597L91.1438 11.9336C91.1083 13.5553 91.0108 15.2872 90.8513 17.1294C90.6793 19.0504 90.3684 20.9576 89.9208 22.8371C90.5766 23.6722 91.2058 24.5504 91.8084 25.4718L89.5221 26.8028C89.4334 26.6492 89.3492 26.4999 89.2695 26.3549C89.1897 26.2098 89.1055 26.0691 89.0169 25.9326C88.9283 26.2056 88.8308 26.4786 88.7245 26.7516C88.6181 27.0246 88.5118 27.3062 88.4055 27.5962C88.4586 27.3065 88.5118 26.978 88.565 26.6108C88.6181 26.2436 88.6625 25.8384 88.6979 25.3951C87.411 23.2715 85.986 21.2284 84.4315 19.2778C83.015 17.4959 81.5018 15.7872 79.8981 14.1588C79.7968 15.2138 79.7568 16.2733 79.7785 17.3326C79.8051 18.254 79.8627 19.1413 79.9513 19.9945C80.0754 21.1889 80.2216 22.3407 80.39 23.4498C80.5555 24.5462 80.7907 25.6318 81.0945 26.7004L78.755 27.673C78.188 25.4564 77.9641 23.1714 78.0903 20.8919Z" fill="#FF0000"/>
<path d="M94.2814 27.2359C94.175 26.0756 94.0909 24.847 94.0288 23.5502C93.9668 22.2534 93.9668 20.9267 94.0288 19.5701C94.0926 18.1949 94.2301 16.8237 94.4409 15.4621C94.6575 14.0638 94.9955 12.6853 95.4511 11.3413C95.4157 12.2115 95.4068 13.2055 95.4246 14.3231C95.4423 15.4408 95.5043 16.6608 95.6107 17.9832C95.717 19.306 95.8765 20.7137 96.0892 22.2064C96.3019 23.6992 96.5854 25.2477 96.9399 26.852L94.2814 27.2359Z" fill="#FF0000"/>
<path d="M109.009 20.7588C108.087 20.9124 107.113 21.0403 106.085 21.1427C105.016 21.2469 103.942 21.2897 102.868 21.2707C102.986 22.2862 103.044 23.3074 103.041 24.3293C103.025 25.3116 102.932 26.2913 102.762 27.26L100.023 27.3111C100.254 26.2362 100.44 25.1953 100.582 24.1885C100.723 23.1818 100.839 22.1751 100.927 21.1683C100.573 21.1342 100.218 21.0958 99.8637 21.0531C99.5091 21.0112 99.155 20.9636 98.8003 20.9124C98.8499 20.561 98.9299 20.2143 99.0396 19.8758C99.1636 19.4755 99.3409 19.0019 99.5713 18.4552C99.8194 18.5412 100.063 18.6265 100.302 18.7112C100.542 18.7958 100.785 18.8811 101.033 18.9671C101.087 17.5079 101.06 16.0469 100.954 14.5904C100.44 14.6927 100.023 14.7823 99.7042 14.8591L98.694 15.1023C98.9067 14.9835 99.097 14.8719 99.2656 14.7695C99.4341 14.6672 99.6021 14.574 99.7707 14.488C99.9392 14.402 100.112 14.3134 100.289 14.2192C100.487 14.1171 100.691 14.0273 100.901 13.9505C100.812 12.9103 100.706 11.9036 100.582 10.9303C100.776 11.4258 100.945 11.9036 101.087 12.3636C101.228 12.8236 101.37 13.2758 101.512 13.7201C102.723 13.2471 103.961 12.8411 105.221 12.5044C106.417 12.189 107.449 11.9629 108.318 11.8261C108.247 11.6725 108.181 11.5154 108.119 11.3526C108.056 11.1898 107.981 11.0163 107.893 10.8279C108.034 10.9985 108.167 11.1606 108.291 11.3142L108.664 11.7749C109.016 11.7264 109.371 11.7007 109.727 11.6981C110.319 12.4131 110.746 13.2423 110.976 14.1297C110.836 14.0962 110.694 14.0705 110.551 14.0529C110.408 14.0362 110.266 14.0106 110.126 13.9761C110.429 14.5287 110.678 15.107 110.87 15.7038C111.03 16.2249 111.154 16.7069 111.242 17.1499C111.349 17.6618 111.428 18.1481 111.482 18.6088C111.535 19.0763 111.562 19.5462 111.561 20.0165C111.774 20.0002 111.987 19.9874 112.199 19.9781C112.412 19.9689 112.634 19.9561 112.864 19.9397C112.669 19.9909 112.465 20.0421 112.253 20.0933C112.04 20.1445 111.81 20.2049 111.561 20.2725C111.561 20.7161 111.535 21.1939 111.482 21.7058L108.903 21.5011C108.92 21.3649 108.938 21.2415 108.956 21.1299C108.973 21.0183 108.992 20.8975 109.009 20.7588ZM102.655 19.4038C103.613 19.6356 104.585 19.8066 105.566 19.9157C106.745 20.0427 107.93 20.1025 109.115 20.0949C109.24 19.2758 109.319 18.5762 109.355 17.9961C109.39 17.4159 109.403 16.9168 109.395 16.4987C109.392 16.1381 109.356 15.7784 109.288 15.4237C109.226 15.1258 109.169 14.8479 109.115 14.5919C109.08 14.4731 109.049 14.358 109.022 14.2464C108.996 14.1348 108.965 14.0191 108.929 13.8993C107.736 13.8505 106.541 13.8848 105.354 14.0017C104.086 14.1225 102.868 14.2761 101.698 14.4624C101.946 15.3838 102.146 16.2583 102.296 17.0859C102.447 17.9135 102.567 18.6861 102.655 19.4038Z" fill="#FF0000"/>
<path d="M124.056 20.7588C123.135 20.9124 122.16 21.0403 121.132 21.1427C120.063 21.2469 118.989 21.2896 117.915 21.2707C118.033 22.2863 118.091 23.3074 118.088 24.3293C118.073 25.3116 117.979 26.2913 117.809 27.26L115.071 27.3111C115.301 26.2362 115.487 25.1953 115.629 24.1885C115.771 23.1818 115.886 22.1751 115.975 21.1683C115.62 21.1342 115.266 21.0958 114.911 21.0531C114.556 21.0112 114.202 20.9636 113.848 20.9124C113.897 20.5609 113.977 20.2141 114.087 19.8758C114.211 19.4755 114.388 19.0019 114.619 18.4552C114.867 18.5412 115.11 18.6265 115.35 18.7112C115.589 18.7958 115.833 18.8811 116.081 18.9671C116.134 17.5079 116.108 16.0469 116.001 14.5904C115.487 14.6927 115.071 14.7823 114.752 14.8591L113.741 15.1023C113.954 14.9835 114.144 14.8719 114.313 14.7695C114.481 14.6672 114.649 14.574 114.818 14.488C114.987 14.402 115.159 14.3134 115.336 14.2192C115.534 14.117 115.738 14.0272 115.948 13.9505C115.859 12.9103 115.753 11.9036 115.629 10.9303C115.824 11.4258 115.992 11.9036 116.134 12.3636C116.276 12.8236 116.418 13.2758 116.559 13.7201C117.77 13.2471 119.009 12.8411 120.268 12.5044C121.464 12.189 122.497 11.9629 123.365 11.8261C123.294 11.6725 123.228 11.5154 123.166 11.3526C123.104 11.1898 123.028 11.0163 122.94 10.8279C123.082 10.9985 123.215 11.1606 123.339 11.3142L123.711 11.7749C124.063 11.7264 124.418 11.7007 124.774 11.6981C125.367 12.4131 125.793 13.2423 126.024 14.1297C125.884 14.0962 125.742 14.0706 125.598 14.0529C125.455 14.0362 125.313 14.0106 125.173 13.9761C125.476 14.5287 125.725 15.107 125.917 15.7038C126.077 16.2249 126.201 16.7069 126.29 17.1499C126.396 17.6618 126.476 18.1481 126.529 18.6088C126.582 19.0763 126.609 19.5462 126.609 20.0165C126.821 20.0002 127.034 19.9874 127.247 19.9781C127.459 19.9689 127.681 19.9561 127.911 19.9397C127.716 19.9909 127.512 20.0421 127.3 20.0933C127.087 20.1445 126.856 20.2049 126.609 20.2725C126.609 20.7161 126.582 21.1939 126.529 21.7058L123.95 21.5011C123.968 21.3649 123.985 21.2415 124.003 21.1299C124.021 21.0183 124.038 20.8975 124.056 20.7588ZM117.703 19.4038C118.66 19.6356 119.633 19.8066 120.614 19.9157C121.792 20.0427 122.977 20.1025 124.163 20.0949C124.287 19.2758 124.366 18.5762 124.402 17.9961C124.438 17.4159 124.451 16.9168 124.442 16.4987C124.439 16.1381 124.403 15.7785 124.336 15.4237C124.273 15.1258 124.216 14.8479 124.163 14.5919C124.127 14.4731 124.096 14.358 124.07 14.2464C124.043 14.1358 124.012 14.0206 123.977 13.9008C122.784 13.8521 121.589 13.8863 120.401 14.0032C119.134 14.123 117.915 14.2761 116.745 14.4624C116.994 15.3838 117.193 16.2583 117.344 17.0859C117.494 17.9135 117.614 18.6861 117.703 19.4038Z" fill="#FF0000"/>
<path d="M141.071 11.7493C141.478 11.7667 141.886 11.788 142.294 11.8133C142.702 11.8385 143.127 11.8769 143.57 11.9284C143.198 11.9796 142.826 12.0394 142.454 12.1076C142.081 12.1759 141.709 12.2526 141.337 12.338C141.904 13.7201 142.272 15.0169 142.44 16.2284C142.609 17.4673 142.64 18.72 142.533 19.9653C142.462 20.7332 142.352 21.501 142.201 22.2689C142.05 23.0367 141.869 23.7705 141.656 24.4701C142.241 24.5212 142.817 24.598 143.384 24.7004L142.4 27.1319C142.099 27.0296 141.811 26.9364 141.536 26.8504C141.262 26.7644 140.991 26.6805 140.726 26.5944C140.584 26.7992 140.451 26.9826 140.327 27.1447C140.206 27.3035 140.072 27.4533 139.928 27.5927C139.999 27.4053 140.061 27.2176 140.114 27.0296C140.167 26.8415 140.22 26.6538 140.274 26.4665C139.104 26.1767 138.063 26.0018 137.15 25.9418C136.314 25.8835 135.475 25.8707 134.638 25.9034H134.318C134.22 25.903 134.122 25.9115 134.026 25.929L134.186 26.2361C134.241 26.3422 134.303 26.4448 134.372 26.5433L131.474 27.3879C131.388 27.2085 131.313 27.0248 131.248 26.8376C131.186 26.6584 131.119 26.4757 131.048 26.2873C130.659 26.3733 130.313 26.4586 130.012 26.5433C129.71 26.6279 129.312 26.7388 128.815 26.876C129.258 26.6371 129.621 26.4323 129.905 26.2617C130.213 26.0792 130.532 25.9167 130.862 25.7754C130.472 24.6492 130.224 23.6041 130.118 22.64C130.012 21.6838 129.985 20.7209 130.038 19.7605C130.074 19.1637 130.136 18.5537 130.224 17.9305C130.326 17.2493 130.486 16.5773 130.703 15.9213C130.561 15.9895 130.424 16.0535 130.291 16.1132C130.158 16.1736 130.02 16.2376 129.879 16.3052C129.562 15.7149 129.363 15.0723 129.294 14.4112C129.949 14.0358 130.494 13.7329 130.929 13.5025C131.363 13.2722 131.731 13.0888 132.032 12.9522C132.174 12.7134 132.316 12.4702 132.458 12.2228C132.599 11.976 132.75 11.7237 132.909 11.4677C132.698 11.8979 132.52 12.3428 132.378 12.7987C132.555 12.7311 132.723 12.6707 132.883 12.6195C133.042 12.5683 133.202 12.5263 133.361 12.4915C133.521 12.4567 133.689 12.424 133.867 12.3892C134.044 12.3543 134.247 12.3216 134.478 12.2868C134.921 12.2185 135.457 12.1375 136.086 12.0436C136.716 11.9498 137.429 11.8772 138.227 11.8261C138.847 11.4848 139.352 11.216 139.742 11.0198C140.132 10.8243 140.397 10.6999 140.539 10.6487C140.646 10.8371 140.739 11.0198 140.819 11.199C140.898 11.3781 140.982 11.5635 141.071 11.7493ZM140.566 19.5302C140.423 18.4478 140.209 17.375 139.928 16.318C139.644 15.2522 139.21 14.1474 138.625 13.0034C137.473 13.3106 136.334 13.6646 135.209 14.0656C134.084 14.4666 132.954 14.9145 131.819 15.4094C131.784 15.7677 131.762 16.126 131.753 16.4844C131.744 16.8427 131.749 17.2181 131.766 17.6106C131.795 18.6829 131.902 19.7519 132.085 20.8099C132.28 21.9873 132.741 23.3353 133.468 24.854C134.248 24.6328 134.939 24.4921 135.541 24.4317C136.144 24.3713 136.729 24.3329 137.296 24.3165C137.881 24.2824 138.453 24.2738 139.011 24.2909C139.569 24.308 140.123 24.3335 140.672 24.3677C140.777 23.5399 140.812 22.7054 140.779 21.8721C140.743 21.0797 140.672 20.2991 140.566 19.5302Z" fill="#FF0000"/>
<path d="M146.281 20.8882C146.405 18.5846 146.839 16.1787 147.584 13.6704C147.194 13.2782 146.804 12.9029 146.414 12.5442C146.024 12.1855 145.643 11.8442 145.271 11.5204C145.696 11.7593 146.117 12.0109 146.534 12.2754C146.95 12.5399 147.363 12.8172 147.77 13.1073C148 12.3394 148.266 11.5716 148.568 10.8037C148.479 11.2815 148.403 11.7337 148.342 12.1603C148.28 12.5868 148.223 12.9958 148.169 13.3873C149.813 14.5557 151.376 15.8253 152.848 17.1882C154.354 18.579 155.775 20.0532 157.102 21.6033C157.12 20.2212 157.071 18.7836 156.956 17.2905C156.851 15.8662 156.642 14.4508 156.331 13.0545L159.335 11.9284C159.3 13.5501 159.202 15.282 159.043 17.1242C158.871 19.0452 158.56 20.9524 158.112 22.8319C158.768 23.6683 159.397 24.5471 160 25.4682L157.714 26.7991C157.625 26.6456 157.54 26.4963 157.461 26.3512C157.382 26.2062 157.297 26.0654 157.208 25.9289C157.12 26.2019 157.022 26.4749 156.916 26.7479C156.81 27.021 156.704 27.3025 156.597 27.5926C156.65 27.3028 156.703 26.9744 156.757 26.6072C156.81 26.24 156.854 25.8347 156.889 25.3914C155.602 23.2679 154.177 21.2247 152.623 19.2742C151.206 17.4922 149.693 15.7835 148.09 14.1551C147.988 15.2101 147.948 16.2697 147.97 17.3289C147.997 18.2504 148.054 19.1377 148.143 19.9908C148.267 21.1853 148.413 22.337 148.582 23.4462C148.747 24.5426 148.982 25.6282 149.286 26.6968L146.947 27.6694C146.379 25.4528 146.155 23.1678 146.281 20.8882Z" fill="#FF0000"/>
<path d="M78.819 35.7021C78.152 35.7021 77.5723 35.4798 77.08 35.0351L77.5207 34.5111C77.9376 34.8724 78.3763 35.053 78.8369 35.053C79.0632 35.053 79.2419 35.0054 79.3729 34.9101C79.5079 34.8108 79.5754 34.6838 79.5754 34.5289V34.517C79.5754 34.3622 79.5099 34.2391 79.3788 34.1478C79.2518 34.0525 79.0036 33.9632 78.6344 33.8798C78.154 33.7687 77.8026 33.6238 77.5802 33.4451C77.3579 33.2664 77.2467 32.9965 77.2467 32.6352V32.6233C77.2467 32.266 77.3797 31.9761 77.6457 31.7538C77.9118 31.5275 78.2532 31.4144 78.6701 31.4144C79.2379 31.4144 79.7421 31.5891 80.1829 31.9384L79.7898 32.4923C79.4007 32.2064 79.0235 32.0635 78.6582 32.0635C78.4478 32.0635 78.281 32.1111 78.1579 32.2064C78.0388 32.2977 77.9793 32.4148 77.9793 32.5578V32.5697C77.9793 32.7325 78.0448 32.8595 78.1758 32.9508C78.3108 33.0382 78.5768 33.1295 78.9739 33.2248C79.4384 33.3439 79.7759 33.4947 79.9863 33.6773C80.2007 33.856 80.3079 34.1121 80.3079 34.4456V34.4575C80.3079 34.8426 80.171 35.1463 79.897 35.3686C79.623 35.5909 79.2637 35.7021 78.819 35.7021Z" fill="white"/>
<path d="M82.1064 35.6426V32.1528H80.7783V31.4739H84.1671V32.1528H82.839V35.6426H82.1064Z" fill="white"/>
<path d="M86.6359 35.7081C86.084 35.7081 85.6492 35.5512 85.3316 35.2376C85.0179 34.92 84.8611 34.4654 84.8611 33.8739V31.4739H85.5937V33.8441C85.5937 34.2292 85.685 34.523 85.8676 34.7255C86.0542 34.9279 86.3143 35.0292 86.6478 35.0292C86.9774 35.0292 87.2334 34.9319 87.4161 34.7374C87.6027 34.5389 87.696 34.251 87.696 33.8739V31.4739H88.4286V33.8381C88.4286 34.4456 88.2697 34.9101 87.9521 35.2317C87.6345 35.5493 87.1957 35.7081 86.6359 35.7081Z" fill="white"/>
<path d="M89.4341 35.6426V31.4739H90.9885C91.6357 31.4739 92.1658 31.6724 92.5787 32.0694C92.9956 32.4625 93.204 32.9548 93.204 33.5463V33.5582C93.204 34.1538 92.9956 34.65 92.5787 35.047C92.1658 35.4441 91.6357 35.6426 90.9885 35.6426H89.4341ZM90.9885 32.1409H90.1666V34.9756H90.9885C91.4213 34.9756 91.7707 34.8446 92.0367 34.5825C92.3027 34.3205 92.4358 33.983 92.4358 33.5702V33.5582C92.4358 33.1454 92.3027 32.8059 92.0367 32.5399C91.7707 32.2739 91.4213 32.1409 90.9885 32.1409Z" fill="white"/>
<path d="M94.93 35.6426V33.9989L93.2743 31.4739H94.1438L95.3052 33.3141L96.4844 31.4739H97.3242L95.6685 33.9811V35.6426H94.93Z" fill="white"/>
<path d="M101.687 35.714C101.084 35.714 100.58 35.5076 100.175 35.0947C99.7697 34.6818 99.5672 34.1736 99.5672 33.5702V33.5582C99.5672 32.9548 99.7697 32.4446 100.175 32.0278C100.58 31.6109 101.092 31.4025 101.711 31.4025C102.073 31.4025 102.38 31.458 102.634 31.5692C102.889 31.6804 103.127 31.8412 103.349 32.0516L102.879 32.5935C102.505 32.2521 102.114 32.0814 101.705 32.0814C101.316 32.0814 100.991 32.2243 100.729 32.5101C100.467 32.792 100.336 33.1374 100.336 33.5463V33.5582C100.336 33.9711 100.467 34.3205 100.729 34.6064C100.991 34.8922 101.318 35.0351 101.711 35.0351C101.949 35.0351 102.16 34.9915 102.343 34.9041C102.525 34.8168 102.714 34.6818 102.908 34.4992L103.379 34.9756C103.153 35.2178 102.906 35.4024 102.64 35.5294C102.374 35.6525 102.057 35.714 101.687 35.714Z" fill="white"/>
<path d="M104.155 35.6426V31.4739H107.246V32.129H104.887V33.2128H106.978V33.8739H104.887V34.9875H107.275V35.6426H104.155Z" fill="white"/>
<path d="M108.144 35.6426V31.4739H108.823L111.057 34.3562V31.4739H111.777V35.6426H111.164L108.865 32.6769V35.6426H108.144Z" fill="white"/>
<path d="M113.868 35.6426V32.1528H112.54V31.4739H115.929V32.1528H114.601V35.6426H113.868Z" fill="white"/>
<path d="M116.688 35.6426V31.4739H119.779V32.129H117.421V33.2128H119.511V33.8739H117.421V34.9875H119.809V35.6426H116.688Z" fill="white"/>
<path d="M120.678 35.6426V31.4739H122.536C123.052 31.4739 123.454 31.6129 123.739 31.8908C123.97 32.133 124.085 32.4327 124.085 32.79V32.8019C124.085 33.1315 123.995 33.4034 123.817 33.6178C123.638 33.8282 123.398 33.9771 123.096 34.0644L124.222 35.6426H123.352L122.328 34.1895H121.411V35.6426H120.678ZM121.411 33.5404H122.483C122.745 33.5404 122.953 33.4788 123.108 33.3558C123.263 33.2287 123.34 33.058 123.34 32.8436V32.8317C123.34 32.6054 123.265 32.4347 123.114 32.3196C122.967 32.2005 122.755 32.1409 122.477 32.1409H121.411V33.5404Z" fill="white"/>
</svg>
